<svg xmlns="http://www.w3.org/2000/svg" viewBox="0 0 128 128" id="Recyclesign">
  <path fill="none" d="M28.5 93.3c-.9 1.6-.9 3.6.1 5.1l.1.2c.7 1.1 1.7 1.9 3 2.5 1 .5 2.1.8 3.3.7l21.4.2V86.8H32.2l-3.7 6.5zm-4.6-2.1c.1-.1.1-.3.2-.4l4.4-7.8 8.2-14.3c.3-.6.9-1 1.5-1.2.7-.2 1.3-.1 1.9.2l.6.3-4.9-13.4-14 2.6.6.3c.6.3 1 .9 1.2 1.5.2.7.1 1.3-.2 1.9l-6.7 11.7c-1.4 2.5-1.3 5.5.3 7.9l6.9 10.7zm28.9-72.9h-.1c-1.3 0-2.6.4-3.8 1.1-1 .6-1.8 1.4-2.4 2.3L35.7 38.3l12.6 8.1 12.3-18.7-3.4-6.7c-.9-1.6-2.6-2.7-4.4-2.7zm35.7 44.1 11.1 19.4h7.5c1.8 0 3.5-1 4.4-2.7V79c.6-1.2.8-2.5.7-3.9-.1-1.2-.4-2.2-1-3.2l-9.8-17.1-12.9 7.6zM73.4 43.3c-.2.6-.7 1.2-1.3 1.5l-.6.3 13.8 3.2 5.5-13.1-.6.3c-.6.3-1.3.4-1.9.2-.6-.2-1.2-.7-1.5-1.3l-6.1-12.1a7.64 7.64 0 0 0-6.8-4.1H61.5c.1.1.1.3.2.4l4.1 8 7.5 14.7c.3.7.3 1.4.1 2zm8.2 43.6c-1.4 0-2.5-1.1-2.5-2.5v-.7l-9.2 10.8 9.2 10.8v-.7c0-.7.3-1.3.7-1.8.5-.5 1.1-.7 1.8-.7h13.5c2.8 0 5.4-1.6 6.7-4.2l5.6-11H81.6z"></path>
  <path d="M61.7 46.3c.1 1.1.9 1.9 1.9 2.2l22.7 5.3c.2 0 .4.1.6.1 1 0 1.9-.6 2.3-1.6l9-21.5c.4-1 .2-2.1-.6-2.8-.8-.7-1.9-.9-2.9-.4l-4.5 2.3-5-9.8c-2.2-4.3-6.6-6.8-11.3-6.8H52.7c-2.2 0-4.3.7-6.3 1.9-1.7 1-3 2.3-4.1 3.9L30 37.6c-.4.6-.5 1.3-.4 1.9.1.7.5 1.2 1.1 1.6l17 10.9c1.2.7 2.7.4 3.5-.7l12-18.4 4.4 8.5-4.5 2.3c-1 .5-1.5 1.5-1.4 2.6zm-13.4.1-12.6-8.1 10.8-16.5c.6-1 1.4-1.7 2.4-2.3 1.2-.7 2.5-1.1 3.8-1.1h.1c1.8 0 3.6 1.1 4.4 2.7l3.4 6.6-12.3 18.7zm17.5-19.7-4.1-8c-.1-.1-.1-.3-.2-.4h12.4c2.9 0 5.5 1.5 6.8 4.1l6.1 12.1c.3.6.8 1.1 1.5 1.3.6.2 1.3.2 1.9-.2l.6-.3-5.5 13.1-13.8-3.2.6-.3c.6-.3 1.1-.8 1.3-1.5.2-.6.2-1.3-.2-1.9l-7.4-14.8zM103 48.9c-.7-.2-1.4-.1-1.9.3l-17.4 10c-1.2.7-1.6 2.2-.9 3.5l10.9 19.1h-9.6v-5.1c0-1.1-.7-2-1.7-2.4-1-.4-2.1-.1-2.8.7l-15 17.8c-.8.9-.8 2.3 0 3.3l15 17.7c.5.6 1.2.9 1.9.9.3 0 .6-.1.9-.2 1-.4 1.7-1.3 1.7-2.4V107h11c4.8 0 9.1-2.7 11.2-7l9.6-18.7c0-.1.1-.1.1-.2V81c1-2 1.4-4.2 1.2-6.5-.1-1.9-.7-3.8-1.6-5.4l-11-19.3c-.4-.3-.9-.8-1.6-.9zm-1.2 49c-1.3 2.6-3.9 4.2-6.7 4.2H81.6c-.7 0-1.3.3-1.8.7-.5.5-.7 1.1-.7 1.8v.7l-9.2-10.8 9.2-10.8v.7c0 1.4 1.1 2.5 2.5 2.5H107.4l-5.6 11zm10.4-22.8c.1 1.4-.1 2.7-.7 3.9v.1c-.8 1.6-2.6 2.7-4.4 2.7h-7.5L88.5 62.4l13-7.6 9.8 17.1c.5 1 .8 2.1.9 3.2zm-99.3 8.5 11.4 17.5c.1.1.1.2.2.3 1.2 1.8 2.9 3.3 5 4.3 1.7.8 3.6 1.2 5.5 1.3l23.9.2c.7 0 1.3-.3 1.8-.7.5-.5.7-1.1.7-1.8V84.3c0-.7-.3-1.3-.7-1.8-.5-.5-1.1-.7-1.8-.7H35.1l4.8-8.3 4.4 2.5c.9.5 2.1.4 2.9-.3.8-.7 1.1-1.8.7-2.8l-8-21.9c-.4-1.2-1.6-1.8-2.8-1.6l-22.9 4.3c-1 .2-1.9 1-2 2.1-.2 1 .3 2.1 1.2 2.6l4.4 2.5-5.5 9.5c-2.3 4.2-2.1 9.2.6 13.2zm43.5 3.2V102l-21.4-.1c-1.2 0-2.2-.2-3.3-.7-1.3-.6-2.3-1.5-3-2.5l-.1-.2c-1-1.5-1-3.5-.1-5.1l3.7-6.5 24.2-.1zM16.8 72.9l6.7-11.7c.3-.6.4-1.3.2-1.9-.2-.7-.6-1.2-1.2-1.5l-.5-.4 14-2.6 4.9 13.4-.6-.3c-.6-.3-1.3-.4-1.9-.2-.6.2-1.2.6-1.5 1.2l-8.2 14.3-4.4 7.8c-.1.1-.1.3-.2.4L17.3 81c-1.8-2.6-1.9-5.6-.5-8.1z" fill="#0ceda6" class="color000000 svgShape"></path>
</svg>
